<?xml version="1.0" encoding="UTF-8" standalone="no"?>
<!DOCTYPE svg PUBLIC "-//W3C//DTD SVG 1.1//EN" "http://www.w3.org/Graphics/SVG/1.1/DTD/svg11.dtd">
<svg width="100%" height="100%" viewBox="0 0 1182 1182" version="1.1" xmlns="http://www.w3.org/2000/svg" xmlns:xlink="http://www.w3.org/1999/xlink" xml:space="preserve" xmlns:serif="http://www.serif.com/" style="fill-rule:evenodd;clip-rule:evenodd;stroke-linejoin:round;stroke-miterlimit:2;">
    <g transform="matrix(4.16667,0,0,4.16667,-9.25001,230.685)">
        <path d="M0,224.382C11.799,225.896 20.022,207.456 22.786,194.627C29.272,164.514 52.402,118.727 98.195,102.308C163.733,78.81 284.294,14.823 285.399,-0.046C287.04,-22.13 284.024,101.556 273.167,132.689C259.817,170.967 237.838,246.512 88.3,235.953C10.861,230.485 -4.459,223.81 0,224.382" style="fill:rgb(160,227,187);fill-rule:nonzero;"/>
    </g>
    <g transform="matrix(4.16667,0,0,4.16667,661.037,70.0974)">
        <path d="M0,194.15L-4.771,-9.708L23.979,0.001L28.75,203.858" style="fill-rule:nonzero;"/>
    </g>
    <g transform="matrix(4.16667,0,0,4.16667,606.558,86.6724)">
        <path d="M0,185.757L-2.669,71.731L-31.418,62.022L-32.586,12.135L-68.522,0L-67.355,49.887L-96.104,40.178L-93.436,154.205" style="fill-rule:nonzero;"/>
    </g>
    <g transform="matrix(4.16667,0,0,4.16667,840.612,551.077)">
        <path d="M0,93.269L-2.637,-19.421L26.112,-9.713L27.061,30.82L55.81,40.528L57.447,110.459L57.511,112.69" style="fill-rule:nonzero;"/>
    </g>
</svg>
