<svg xmlns="http://www.w3.org/2000/svg" xmlns:xlink="http://www.w3.org/1999/xlink" width="1280" height="500" viewBox="0 0 1280 500">
  <defs>
    <clipPath id="clip-Web_1280_1">
      <rect width="1280" height="500"/>
    </clipPath>
  </defs>
  <g id="Web_1280_1" data-name="Web 1280 – 1" clip-path="url(#clip-Web_1280_1)">
    <rect width="1280" height="500" fill="#fff"/>
    <g id="Grupo_3" data-name="Grupo 3" transform="translate(-43 -275.204)">
      <g id="Grupo_1" data-name="Grupo 1" transform="translate(179 429.204)">
        <path id="Trazado_1" data-name="Trazado 1" d="M276.689,533.248l26.085-45.057-21.738-47.428h-9.862L217.4,533.248,257.718,611.5H306.44l5.838-9.174Z" transform="translate(-154.386 -421.795)" fill="#77fb9f"/>
        <path id="Trazado_2" data-name="Trazado 2" d="M220.188,429.2,179,461.611l14.523,114.728h8.714L242.1,540.45l-12.831-110.5Z" transform="translate(-179 -429.204)" fill="#1f2226"/>
      </g>
      <g id="Grupo_2" data-name="Grupo 2" transform="translate(371.795 484.951)">
        <path id="Trazado_3" data-name="Trazado 3" d="M296.492,594.167V466.445h15.889v71.541h19.368L361,497.307h17.824l-34.1,47.07,36.035,49.79H361.773l-30.024-41.843H312.381v41.843Z" transform="translate(-296.492 -461.082)" fill="#1f2226"/>
        <path id="Trazado_4" data-name="Trazado 4" d="M390.567,584.63q-11.244,0-19.374-4.746a31.178,31.178,0,0,1-12.5-13.756q-4.349-9.006-4.36-21.6v-59.28h15.887V542.6q0,12.971,6.587,19.95t18.6,6.972q12.206,0,18.894-7.074t6.677-19.849V485.253h15.887v96.86H420.978V569.906h-1.355a27.255,27.255,0,0,1-12.1,11.143A39.516,39.516,0,0,1,390.567,584.63Z" transform="translate(-259.418 -449.028)" fill="#1f2226"/>
        <path id="Trazado_5" data-name="Trazado 5" d="M448.272,582.113l-37.383-96.86h17.046L458.156,567h1.354l30.409-81.749h16.47L469,582.113Z" transform="translate(-223.173 -449.028)" fill="#1f2226"/>
        <path id="Trazado_6" data-name="Trazado 6" d="M475.462,481.191V463.177H492.7v18.014Zm.773,115.071V499.4h15.882v96.86Z" transform="translate(-181.787 -463.177)" fill="#1f2226"/>
        <path id="Trazado_7" data-name="Trazado 7" d="M547,585.614a52.755,52.755,0,0,1-26.158-6.491,46.109,46.109,0,0,1-18.116-18.109,56.752,56.752,0,0,1,0-52.688A46.093,46.093,0,0,1,520.84,490.21a56.52,56.52,0,0,1,52.6,0,46.224,46.224,0,0,1,18.009,18.116,56.664,56.664,0,0,1,0,52.688,46.24,46.24,0,0,1-18.009,18.109A53,53,0,0,1,547,585.614Zm0-15.11A35.422,35.422,0,0,0,565,566.049a30.555,30.555,0,0,0,12.016-12.591,39.943,39.943,0,0,0,4.258-18.792q0-16.277-9.3-26.058T547,498.828a35.189,35.189,0,0,0-17.83,4.455,30.554,30.554,0,0,0-12.01,12.6,39.917,39.917,0,0,0-4.258,18.787q0,16.275,9.294,26.056T547,570.5Z" transform="translate(-168.471 -450.012)" fill="#1f2226"/>
        <path id="Trazado_8" data-name="Trazado 8" d="M561.876,511.539V497.207h62.959v14.332Zm44.748,82.528q-9.1,0-14.137-2.228a13.78,13.78,0,0,1-7.269-7.264q-2.228-5.034-2.222-13.951V466.6h15.882v103.44c0,3.754.678,6.3,2.031,7.656s3.843,2.038,7.46,2.038h16.465v14.332Z" transform="translate(-126.403 -460.983)" fill="#1f2226"/>
        <path id="Trazado_9" data-name="Trazado 9" d="M656.822,585.614a52.581,52.581,0,0,1-26.245-6.491,45.585,45.585,0,0,1-17.92-18.109,58.1,58.1,0,0,1-.1-52.79A45.48,45.48,0,0,1,630.19,490.21a50.349,50.349,0,0,1,25.469-6.492q15.5,0,27.321,7.46a45.36,45.36,0,0,1,17.527,20.147,49.482,49.482,0,0,1,3.582,27.8H614.783V525.371h81.946l-6.972,6.972a37.12,37.12,0,0,0-4.163-17.824,29.479,29.479,0,0,0-11.819-12.01,35.861,35.861,0,0,0-17.724-4.265,34.658,34.658,0,0,0-17.628,4.36A29.549,29.549,0,0,0,626.7,515.2a42.149,42.149,0,0,0-4.158,19.273q0,17.053,9.3,26.834t24.986,9.783q11.236,0,19.179-5.037t10.656-12.591h15.691a34.476,34.476,0,0,1-8.036,16.173,45.254,45.254,0,0,1-16.084,11.623A52.01,52.01,0,0,1,656.822,585.614Z" transform="translate(-97.952 -450.012)" fill="#1f2226"/>
        <path id="Trazado_10" data-name="Trazado 10" d="M723.292,585.614a52.552,52.552,0,0,1-26.247-6.491,45.6,45.6,0,0,1-17.925-18.109,53.8,53.8,0,0,1-6.391-26.346,52.724,52.724,0,0,1,6.487-26.151A46.972,46.972,0,0,1,697.236,490.3a51.586,51.586,0,0,1,26.056-6.587,53.119,53.119,0,0,1,23.145,4.936,43.063,43.063,0,0,1,24.7,34.579H755.448q-2.326-11.618-11.137-18.009t-21.215-6.4a34.64,34.64,0,0,0-17.724,4.455,30.1,30.1,0,0,0-11.82,12.6,40.636,40.636,0,0,0-4.163,18.787q0,16.08,9.2,25.961T723.1,570.5q12.6,0,21.406-6.682A28.277,28.277,0,0,0,755.448,545.9H771.14a40.312,40.312,0,0,1-7.46,20.634,43.826,43.826,0,0,1-17.046,14.046A53.545,53.545,0,0,1,723.292,585.614Z" transform="translate(-55.355 -450.012)" fill="#1f2226"/>
        <path id="Trazado_11" data-name="Trazado 11" d="M742.855,594.188V466.413h15.882v43.12h1.354a26.918,26.918,0,0,1,12.01-11.048,39.8,39.8,0,0,1,17.248-3.676q11.226,0,19.47,4.745A31.669,31.669,0,0,1,821.5,513.31q4.455,9.006,4.455,21.6v59.281H810.077V536.843q0-12.974-6.687-19.945T784.5,509.919q-12.2,0-18.982,7.074t-6.782,19.85v57.345Z" transform="translate(-10.41 -461.103)" fill="#1f2226"/>
      </g>
    </g>
  </g>
</svg>
