<?xml version="1.0" encoding="UTF-8" standalone="no"?>
<!DOCTYPE svg PUBLIC "-//W3C//DTD SVG 1.1//EN" "http://www.w3.org/Graphics/SVG/1.1/DTD/svg11.dtd">
<svg width="100%" height="100%" viewBox="0 0 3898 1418" version="1.1" xmlns="http://www.w3.org/2000/svg" xmlns:xlink="http://www.w3.org/1999/xlink" xml:space="preserve" xmlns:serif="http://www.serif.com/" style="fill-rule:evenodd;clip-rule:evenodd;stroke-linejoin:round;stroke-miterlimit:2;">
    <g transform="matrix(4.16667,0,0,4.16667,1461.39,711.473)">
        <path d="M0,-15.585C-3.221,-24.085 -11.334,-30.139 -20.865,-30.139C-30.524,-30.139 -38.638,-24.085 -41.729,-15.585L0,-15.585ZM16.229,0.128L-41.729,0.128C-38.51,8.5 -30.395,14.424 -20.865,14.424C-14.812,14.424 -9.144,11.978 -5.152,7.985L13.652,7.985C7.599,20.993 -5.538,30.138 -20.865,30.138C-41.858,30.138 -58.86,13.137 -58.86,-7.857C-58.86,-28.723 -41.858,-45.723 -20.865,-45.723C-2.575,-45.723 12.622,-32.844 16.229,-15.585C16.743,-13.009 17.002,-10.433 17.002,-7.857C17.002,-5.153 16.743,-2.447 16.229,0.128" style="fill-rule:nonzero;"/>
    </g>
    <g transform="matrix(4.16667,0,0,4.16667,1805.38,551.011)">
        <path d="M0,61.306C-6.312,65.943 -14.039,68.648 -22.281,68.648C-30.654,68.648 -38.381,65.943 -44.563,61.306C-52.033,56.026 -57.443,47.911 -59.375,38.638C-59.761,37.093 -60.019,35.547 -60.148,33.873C-60.276,32.842 -60.276,31.683 -60.276,30.653C-60.276,29.494 -60.276,28.464 -60.148,27.304C-60.019,25.888 -59.761,24.342 -59.504,22.925C-57.571,13.523 -52.162,5.409 -44.563,-0.129C-38.381,-4.638 -30.654,-7.342 -22.281,-7.342C-14.039,-7.342 -6.312,-4.638 0,-0.129C7.47,5.409 12.879,13.523 14.812,22.925L-1.417,22.925C-4.508,14.425 -12.751,8.371 -22.281,8.371C-31.941,8.371 -40.055,14.425 -43.275,22.925C-44.176,25.373 -44.563,27.948 -44.563,30.653C-44.563,33.486 -44.049,36.191 -43.146,38.638C-39.927,47.01 -31.812,52.934 -22.281,52.934C-12.879,52.934 -4.765,47.01 -1.546,38.638L14.812,38.638C12.751,47.911 7.342,56.026 0,61.306" style="fill-rule:nonzero;"/>
    </g>
    <g transform="matrix(4.16667,0,0,4.16667,2139.7,679.269)">
        <path d="M0,-0.129C0,-12.365 -10.047,-22.41 -22.281,-22.41C-34.646,-22.41 -44.563,-12.365 -44.563,-0.129C-44.563,12.235 -34.646,22.152 -22.281,22.152C-10.047,22.152 0,12.235 0,-0.129M15.585,-0.129C15.585,20.865 -1.417,37.866 -22.281,37.866C-43.275,37.866 -60.276,20.865 -60.276,-0.129C-60.276,-20.994 -43.275,-37.995 -22.281,-37.995C-1.417,-37.995 15.585,-20.994 15.585,-0.129" style="fill-rule:nonzero;"/>
    </g>
    <g transform="matrix(4.16667,0,0,4.16667,2542.19,679.269)">
        <path d="M0,-0.129C0,12.493 -6.182,23.698 -15.585,30.653C-21.897,35.161 -29.623,37.866 -37.866,37.866C-46.239,37.866 -53.966,35.161 -60.148,30.653C-69.678,23.698 -75.861,12.493 -75.861,-0.129L-75.861,-37.995L-60.148,-37.995L-60.148,-0.129C-60.148,12.235 -50.231,22.152 -37.866,22.152C-25.631,22.152 -15.585,12.235 -15.585,-0.129L-15.585,-37.995L0,-37.995L0,-0.129Z" style="fill-rule:nonzero;"/>
    </g>
    <g transform="matrix(4.16667,0,0,4.16667,2563.64,679.269)">
        <path d="M0,0C0,-12.622 6.182,-23.827 15.714,-30.653C21.897,-35.161 29.623,-37.866 37.996,-37.866C56.156,-37.866 71.482,-24.986 75.089,-7.856L58.733,-7.856C55.512,-16.228 47.397,-22.281 37.996,-22.281C25.631,-22.281 15.714,-12.235 15.714,0L15.714,37.866L0,37.866L0,0Z" style="fill-rule:nonzero;"/>
    </g>
    <g transform="matrix(4.16667,0,0,4.16667,3149.12,607.552)">
        <path d="M0,17.083C0,4.719 -10.047,-5.198 -22.281,-5.198C-34.646,-5.198 -44.563,4.719 -44.563,17.083C-44.563,29.319 -34.646,39.364 -22.281,39.364C-10.047,39.364 0,29.319 0,17.083M15.585,17.083C15.585,29.705 9.403,40.91 0,47.736C-6.312,52.373 -14.039,55.078 -22.281,55.078C-30.654,55.078 -38.381,52.373 -44.563,47.736C-54.095,40.91 -60.277,29.705 -60.277,17.083L-60.277,-37.995L-44.563,-37.995L-44.563,-13.699C-38.381,-18.208 -30.654,-20.912 -22.281,-20.912C-14.039,-20.912 -6.312,-18.208 0,-13.699C9.403,-6.744 15.585,4.461 15.585,17.083" style="fill-rule:nonzero;"/>
    </g>
    <g transform="matrix(4.16667,0,0,4.16667,3480.77,711.473)">
        <path d="M0,-15.585C-3.221,-24.085 -11.334,-30.139 -20.865,-30.139C-30.524,-30.139 -38.638,-24.085 -41.729,-15.585L0,-15.585ZM16.229,0.128L-41.729,0.128C-38.51,8.5 -30.395,14.424 -20.865,14.424C-14.812,14.424 -9.144,11.978 -5.152,7.985L13.652,7.985C7.599,20.993 -5.538,30.138 -20.865,30.138C-41.858,30.138 -58.86,13.137 -58.86,-7.857C-58.86,-28.723 -41.858,-45.723 -20.865,-45.723C-2.575,-45.723 12.622,-32.844 16.229,-15.585C16.743,-13.009 17.002,-10.433 17.002,-7.857C17.002,-5.153 16.743,-2.447 16.229,0.128" style="fill-rule:nonzero;"/>
    </g>
    <g transform="matrix(4.16667,0,0,4.16667,3885.93,646.54)">
        <path d="M0,15.583C-1.931,24.985 -7.34,33.099 -14.812,38.509C-20.994,43.017 -28.721,45.722 -37.093,45.722C-45.336,45.722 -53.063,43.017 -59.375,38.509C-64.654,34.645 -68.905,29.493 -71.61,23.44L-52.935,23.44C-48.814,27.562 -43.275,30.008 -37.093,30.008C-27.561,30.008 -19.448,24.084 -16.229,15.583L-74.186,15.583C-74.573,13.78 -74.83,11.977 -74.958,10.045L-74.958,5.537C-74.83,3.605 -74.573,1.802 -74.186,-0.13C-72.253,-9.403 -66.844,-17.517 -59.375,-22.926C-53.063,-27.564 -45.336,-30.139 -37.093,-30.139C-28.721,-30.139 -20.994,-27.564 -14.812,-22.926C-9.53,-19.063 -5.28,-13.911 -2.447,-7.857L-21.251,-7.857C-25.243,-11.979 -30.911,-14.555 -37.093,-14.555C-46.624,-14.555 -54.737,-8.501 -57.958,-0.13L0,-0.13C0.387,1.802 0.644,3.605 0.773,5.537L0.773,10.045C0.644,11.977 0.387,13.78 0,15.583" style="fill-rule:nonzero;"/>
    </g>
    <g transform="matrix(4.16667,0,0,4.16667,-9.25001,230.685)">
        <path d="M0,224.382C11.799,225.896 20.022,207.456 22.786,194.627C29.272,164.514 52.402,118.727 98.195,102.308C163.733,78.81 284.294,14.823 285.399,-0.046C287.04,-22.13 284.024,101.556 273.167,132.689C259.817,170.967 237.838,246.512 88.3,235.953C10.861,230.485 -4.459,223.81 0,224.382" style="fill:rgb(160,227,187);fill-rule:nonzero;"/>
    </g>
    <g transform="matrix(4.16667,0,0,4.16667,661.037,70.0974)">
        <path d="M0,194.15L-4.771,-9.708L23.979,0.001L28.75,203.858" style="fill-rule:nonzero;"/>
    </g>
    <g transform="matrix(4.16667,0,0,4.16667,606.558,86.6724)">
        <path d="M0,185.757L-2.669,71.731L-31.418,62.022L-32.586,12.135L-68.522,0L-67.355,49.887L-96.104,40.178L-93.436,154.205" style="fill-rule:nonzero;"/>
    </g>
    <g transform="matrix(4.16667,0,0,4.16667,840.612,551.077)">
        <path d="M0,93.269L-2.637,-19.421L26.112,-9.713L27.061,30.82L55.81,40.528L57.447,110.459L57.511,112.69" style="fill-rule:nonzero;"/>
    </g>
</svg>
